<svg width="138" height="182" viewBox="0 0 138 182" fill="none" xmlns="http://www.w3.org/2000/svg">
<path d="M71.7875 2.85979L124.643 32.1554C126.471 33.1687 127.606 35.0943 127.606 37.1846V95.2954C127.606 97.3857 126.471 99.3113 124.643 100.325L71.7875 129.62C70.0534 130.581 67.9466 130.581 66.2125 129.62L13.3568 100.325C11.5286 99.3113 10.3942 97.3857 10.3942 95.2954V37.1846C10.3942 35.0943 11.5286 33.1687 13.3568 32.1554L66.2125 2.85979C67.9466 1.89869 70.0534 1.89869 71.7875 2.85979Z" fill="#020202" stroke="white" stroke-width="2.3"/>
<rect x="25.3001" y="29.44" width="86.48" height="73.6" rx="14.95" stroke="white" stroke-width="2.3"/>
<path d="M93.61 66.3551C93.61 79.1943 82.647 89.7001 69 89.7001C55.353 89.7001 44.39 79.1943 44.39 66.3551C44.39 53.5159 55.353 43.0101 69 43.0101C82.647 43.0101 93.61 53.5159 93.61 66.3551Z" fill="black" stroke="white" stroke-width="2.3"/>
<path d="M107.87 41.9749C107.87 44.8709 105.286 47.3799 101.89 47.3799C98.4944 47.3799 95.91 44.8709 95.91 41.9749C95.91 39.0789 98.4944 36.5699 101.89 36.5699C105.286 36.5699 107.87 39.0789 107.87 41.9749Z" fill="#D9D9D9" stroke="black" stroke-width="2.3"/>
<g filter="url(#filter0_d_12_36)">
<path d="M82.6184 62.2897C85.6094 64.0741 85.6094 68.4061 82.6184 70.1905L65.1468 80.614C62.0806 82.4433 58.19 80.234 58.19 76.6636V55.8166C58.19 52.2462 62.0806 50.0369 65.1468 51.8662L82.6184 62.2897Z" fill="#D9D9D9"/>
</g>
<path d="M10.3378 158.079L10.5762 157.417L11.1589 157.364C12.0419 157.276 12.7041 157.046 13.1456 156.676C13.6047 156.305 13.9932 155.643 14.3111 154.689L18.7347 141.312C18.7877 141.1 18.8141 140.924 18.8141 140.782C18.8141 140.482 18.664 140.27 18.3638 140.147C18.0813 140.005 17.578 139.899 16.854 139.829L16.3507 139.776L16.5891 139.114L20.4829 139.193H20.7743L23.3437 139.167C25.6923 139.131 27.4318 139.546 28.5619 140.412C29.7098 141.277 30.2837 142.425 30.2837 143.855C30.2837 145.038 29.9394 146.098 29.2507 147.034C28.5619 147.952 27.5466 148.676 26.2045 149.206C24.88 149.736 23.2377 150 21.2776 150C20.8891 150 20.4564 149.992 19.9796 149.974C19.5205 149.939 18.8759 149.886 18.046 149.815L16.1918 155.457C16.1211 155.634 16.0682 155.81 16.0328 155.987C16.0152 156.146 16.0063 156.287 16.0063 156.411C16.0063 156.729 16.1653 156.949 16.4831 157.073C16.801 157.197 17.3661 157.302 18.1784 157.391L18.6817 157.444L18.4433 158.079L14.2846 158L10.3378 158.079ZM21.3041 139.908L18.2844 149.073C19.0967 149.109 19.6971 149.135 20.0856 149.153C20.4741 149.17 20.7478 149.179 20.9067 149.179C22.2665 149.179 23.3967 149.012 24.2973 148.676C25.2156 148.34 25.9396 147.908 26.4693 147.378C27.0168 146.831 27.4053 146.239 27.6348 145.603C27.8821 144.95 28.0057 144.323 28.0057 143.723C28.0057 142.487 27.5819 141.542 26.7342 140.888C25.9043 140.235 24.8271 139.908 23.5026 139.908H21.3041ZM33.0576 158.371C32.1216 158.371 31.3358 158.177 30.7001 157.788C30.0643 157.382 29.5876 156.852 29.2697 156.199C28.9695 155.528 28.8194 154.813 28.8194 154.053C28.8194 152.994 29.0136 151.987 29.4021 151.033C29.8083 150.062 30.3557 149.197 31.0444 148.438C31.7508 147.678 32.5543 147.078 33.4549 146.636C34.3555 146.195 35.3003 145.974 36.2892 145.974C37.2428 145.974 38.0374 146.177 38.6731 146.583C39.3089 146.972 39.7768 147.484 40.077 148.12C40.3949 148.755 40.5538 149.453 40.5538 150.212C40.5538 151.272 40.3508 152.296 39.9446 153.285C39.5561 154.256 39.0087 155.13 38.3023 155.907C37.6136 156.667 36.8189 157.267 35.9183 157.709C35.0177 158.15 34.0641 158.371 33.0576 158.371ZM33.0311 157.788C33.6845 157.788 34.2937 157.603 34.8588 157.232C35.4239 156.843 35.936 156.34 36.3951 155.722C36.8719 155.104 37.2781 154.424 37.6136 153.682C37.9491 152.941 38.2052 152.208 38.3818 151.484C38.576 150.742 38.6731 150.071 38.6731 149.471C38.6731 147.528 37.8961 146.557 36.3421 146.557C35.6888 146.557 35.0795 146.742 34.5144 147.113C33.9493 147.484 33.4284 147.978 32.9516 148.597C32.4925 149.215 32.0951 149.894 31.7596 150.636C31.4241 151.36 31.1592 152.084 30.965 152.808C30.7884 153.532 30.7001 154.194 30.7001 154.795C30.7001 156.79 31.4771 157.788 33.0311 157.788ZM43.8562 158.371C43.3088 158.371 42.9203 158.238 42.6907 157.974C42.4788 157.709 42.3729 157.355 42.3729 156.914C42.3729 156.631 42.4082 156.331 42.4788 156.013C42.5494 155.678 42.6466 155.342 42.7702 155.007L47.1143 141.71C47.185 141.515 47.2291 141.339 47.2468 141.18C47.2821 141.003 47.2997 140.853 47.2997 140.729C47.2997 140.394 47.2026 140.173 47.0084 140.067C46.8318 139.944 46.5934 139.873 46.2932 139.855C46.0106 139.838 45.7016 139.829 45.3661 139.829L45.5515 139.193L49.8426 139.114L44.4125 155.748C44.3418 156.013 44.28 156.252 44.2271 156.464C44.1741 156.658 44.1476 156.826 44.1476 156.967C44.1476 157.32 44.2889 157.497 44.5714 157.497C44.9599 157.497 45.3396 157.294 45.7104 156.887C46.0813 156.481 46.3815 156.084 46.611 155.695L47.0878 156.013C46.7523 156.561 46.3197 157.091 45.7899 157.603C45.2601 158.115 44.6156 158.371 43.8562 158.371ZM47.0255 165.682C46.4605 165.682 46.0101 165.549 45.6746 165.284C45.3214 165.019 45.1448 164.693 45.1448 164.304C45.1448 163.898 45.2861 163.58 45.5687 163.351C45.8336 163.121 46.1602 163.006 46.5487 163.006C46.8843 163.006 47.1845 163.103 47.4494 163.298C47.6966 163.492 47.9615 163.686 48.244 163.88C48.5089 164.092 48.8444 164.198 49.2506 164.198C49.8157 164.198 50.3808 163.889 50.9459 163.271L53.1179 160.967C53.4181 160.667 53.6654 160.331 53.8596 159.96C54.0715 159.589 54.1775 159.21 54.1775 158.821C54.1775 158.291 54.0362 157.735 53.7536 157.152C53.4711 156.552 53.1268 155.943 52.7206 155.325C52.2261 154.548 51.767 153.762 51.3432 152.967C50.9194 152.155 50.7075 151.378 50.7075 150.636C50.7075 149.7 50.9812 148.95 51.5286 148.385C52.0937 147.82 52.7559 147.299 53.5152 146.822L50.7869 146.981L50.9988 146.345L55.0516 146.133L55.184 146.583C54.2834 147.025 53.6742 147.484 53.3563 147.961C53.0385 148.438 52.8795 148.994 52.8795 149.63C52.8795 150.177 52.9678 150.769 53.1444 151.404C53.3387 152.04 53.5682 152.667 53.8331 153.285C54.098 153.903 54.3364 154.486 54.5483 155.033L55.6608 157.762L56.8793 156.252C57.7269 155.192 58.3273 154.274 58.6805 153.497C59.0514 152.72 59.2721 152.067 59.3427 151.537C59.431 151.007 59.4752 150.601 59.4752 150.318C59.4752 149.93 59.4222 149.585 59.3163 149.285C59.2103 148.985 59.0161 148.694 58.7335 148.411C58.5393 148.217 58.3627 148.031 58.2037 147.855C58.0625 147.678 57.9918 147.449 57.9918 147.166C57.9918 146.937 58.1066 146.681 58.3362 146.398C58.5657 146.115 58.8659 145.974 59.2368 145.974C59.59 145.974 59.9255 146.177 60.2434 146.583C60.5612 146.99 60.7202 147.669 60.7202 148.623C60.7202 149.647 60.5171 150.786 60.1109 152.04C59.7048 153.276 58.8748 154.68 57.621 156.252L53.8596 160.914C52.8177 162.221 51.9171 163.218 51.1578 163.907C50.4161 164.596 49.7274 165.064 49.0917 165.311C48.4559 165.558 47.7672 165.682 47.0255 165.682ZM70.0824 158.371C68.5814 158.371 67.3453 158.079 66.374 157.497C65.4028 156.896 64.6787 156.102 64.202 155.113C63.7428 154.106 63.5132 152.994 63.5132 151.775C63.5132 150.592 63.6898 149.391 64.043 148.173C64.3962 146.954 64.9083 145.789 65.5794 144.676C66.2504 143.564 67.0539 142.566 67.9898 141.683C68.9434 140.8 70.003 140.103 71.1685 139.59C72.3516 139.078 73.6319 138.822 75.0093 138.822C75.7863 138.822 76.4485 138.902 76.996 139.061C77.5434 139.22 78.0025 139.414 78.3734 139.643C78.7619 139.855 79.0797 140.041 79.3269 140.2C79.5742 140.359 79.7773 140.438 79.9362 140.438C80.0951 140.438 80.2541 140.35 80.413 140.173C80.5719 139.997 80.7397 139.793 80.9163 139.564H81.605L80.5454 142.292L79.6183 145.153H78.9296C78.9649 144.906 78.9914 144.676 79.0091 144.464C79.0267 144.252 79.0356 144.041 79.0356 143.829C79.0356 142.539 78.7001 141.515 78.029 140.756C77.3756 139.997 76.422 139.617 75.1682 139.617C74.1793 139.617 73.2257 139.846 72.3075 140.306C71.3892 140.747 70.5416 141.365 69.7646 142.16C68.9876 142.954 68.3077 143.855 67.7249 144.862C67.1422 145.868 66.6831 146.937 66.3475 148.067C66.0297 149.197 65.8707 150.318 65.8707 151.431C65.8707 153.444 66.2946 154.971 67.1422 156.013C68.0075 157.055 69.1377 157.576 70.5327 157.576C71.3804 157.576 72.2015 157.408 72.9962 157.073C73.8085 156.72 74.506 156.278 75.0888 155.748C75.6715 155.219 76.0424 154.698 76.2013 154.186L76.784 152.517C76.837 152.358 76.8635 152.225 76.8635 152.12C76.8635 151.819 76.7487 151.581 76.5192 151.404C76.2896 151.228 75.9894 151.131 75.6185 151.113L74.4266 151.007L74.612 150.318L78.2939 150.424L81.7639 150.318L81.5785 150.981L80.5984 151.086C80.1569 151.139 79.7949 151.298 79.5124 151.563C79.2475 151.828 79.0532 152.137 78.9296 152.49L78.1085 154.821C78.0555 154.98 78.029 155.122 78.029 155.245C78.029 155.545 78.1173 155.793 78.2939 155.987C78.4705 156.163 78.6029 156.322 78.6912 156.464L78.029 157.152C77.8524 156.94 77.6493 156.711 77.4198 156.464C77.2079 156.199 76.9606 156.066 76.6781 156.066C76.4662 156.066 76.1836 156.181 75.8305 156.411C75.4949 156.64 75.0623 156.914 74.5325 157.232C74.0204 157.532 73.3935 157.797 72.6518 158.026C71.9278 158.256 71.0713 158.371 70.0824 158.371ZM81.6505 158L84.9351 148.888C85.147 148.305 85.2265 147.881 85.1735 147.616C85.1382 147.334 84.9704 147.157 84.6702 147.087C84.3877 147.016 83.9638 146.981 83.3987 146.981L83.6107 146.345L87.2396 146.266L86.0741 150.159C86.4626 149.418 86.8776 148.729 87.3191 148.093C87.7782 147.458 88.2815 146.945 88.8289 146.557C89.394 146.168 90.0032 145.974 90.6566 145.974C91.1158 145.974 91.5661 146.115 92.0075 146.398C92.449 146.681 92.6698 147.131 92.6698 147.749C92.6698 148.014 92.5815 148.279 92.4049 148.544C92.2459 148.808 91.9634 148.941 91.5572 148.941C91.2217 148.941 90.9657 148.853 90.7891 148.676C90.6125 148.482 90.48 148.19 90.3917 147.802C90.2858 147.272 90.0209 147.007 89.5971 147.007C89.2616 147.007 88.8995 147.166 88.511 147.484C88.1402 147.802 87.7252 148.323 87.2661 149.047C86.9659 149.541 86.648 150.133 86.3125 150.822C85.977 151.493 85.6414 152.278 85.3059 153.179L83.5577 158H81.6505ZM96.0245 158.371C95.1945 158.371 94.5146 158.203 93.9849 157.868C93.4551 157.514 93.0666 157.055 92.8194 156.49C92.5722 155.907 92.4485 155.289 92.4485 154.636C92.4485 153.523 92.6869 152.446 93.1637 151.404C93.6405 150.362 94.2586 149.435 95.0179 148.623C95.7949 147.811 96.6337 147.166 97.5344 146.689C98.435 146.213 99.3179 145.974 100.183 145.974C100.996 145.974 101.605 146.239 102.011 146.769C102.435 147.299 102.682 147.978 102.753 148.808L103.653 146.345H105.401L102.09 155.748C102.02 156.013 101.958 156.252 101.905 156.464C101.852 156.658 101.826 156.826 101.826 156.967C101.826 157.32 101.967 157.497 102.249 157.497C102.638 157.497 103.017 157.294 103.388 156.887C103.759 156.481 104.059 156.084 104.289 155.695L104.766 156.013C104.43 156.561 103.998 157.091 103.468 157.603C102.938 158.115 102.293 158.371 101.534 158.371C100.987 158.371 100.598 158.238 100.369 157.974C100.157 157.709 100.051 157.355 100.051 156.914C100.051 156.578 100.104 156.199 100.21 155.775C99.627 156.587 98.9824 157.223 98.276 157.682C97.5697 158.141 96.8192 158.371 96.0245 158.371ZM96.2894 157.682C97.296 157.682 98.2407 157.205 99.1237 156.252C100.007 155.281 100.766 154.009 101.402 152.437L101.72 151.537C102.02 150.654 102.17 149.842 102.17 149.1C102.17 148.376 102.02 147.793 101.72 147.352C101.419 146.892 100.96 146.663 100.342 146.663C99.6358 146.663 98.9294 146.937 98.2231 147.484C97.5344 148.014 96.8986 148.711 96.3159 149.577C95.7508 150.442 95.2916 151.369 94.9385 152.358C94.6029 153.329 94.4352 154.265 94.4352 155.166C94.4352 155.996 94.6029 156.623 94.9385 157.046C95.274 157.47 95.7243 157.682 96.2894 157.682ZM122.095 158.371C121.477 158.371 121.035 158.23 120.77 157.947C120.523 157.664 120.399 157.285 120.399 156.808C120.399 156.472 120.444 156.11 120.532 155.722C120.638 155.316 120.77 154.883 120.929 154.424L123.075 148.57C123.198 148.217 123.26 147.899 123.26 147.616C123.26 147.263 123.163 147.016 122.969 146.875C122.775 146.716 122.536 146.636 122.254 146.636C121.812 146.636 121.344 146.769 120.85 147.034C120.355 147.299 119.878 147.643 119.419 148.067C118.978 148.491 118.581 148.959 118.227 149.471C117.874 149.965 117.609 150.451 117.433 150.928L114.863 158H112.903L116.347 148.57C116.47 148.217 116.532 147.908 116.532 147.643C116.532 147.29 116.435 147.034 116.241 146.875C116.046 146.716 115.808 146.636 115.525 146.636C115.049 146.636 114.554 146.786 114.042 147.087C113.548 147.369 113.071 147.749 112.612 148.226C112.153 148.685 111.746 149.179 111.393 149.709C111.04 150.221 110.775 150.716 110.599 151.192L108.135 158H106.228L109.513 148.888C109.689 148.429 109.777 148.058 109.777 147.775C109.777 147.334 109.601 147.096 109.248 147.06C108.895 147.007 108.471 146.981 107.976 146.981L108.188 146.345L112.082 146.266L111.314 148.835C111.879 148.093 112.559 147.431 113.353 146.848C114.148 146.266 115.04 145.974 116.029 145.974C116.876 145.974 117.45 146.16 117.751 146.53C118.068 146.884 118.227 147.334 118.227 147.881C118.227 148.129 118.201 148.402 118.148 148.702C118.695 147.978 119.358 147.343 120.135 146.795C120.929 146.248 121.803 145.974 122.757 145.974C123.587 145.974 124.17 146.16 124.505 146.53C124.858 146.884 125.035 147.325 125.035 147.855C125.035 148.314 124.947 148.773 124.77 149.232L122.571 155.272C122.483 155.554 122.404 155.828 122.333 156.093C122.28 156.358 122.254 156.596 122.254 156.808C122.254 157.002 122.289 157.17 122.36 157.311C122.43 157.435 122.554 157.497 122.73 157.497C123.031 157.497 123.357 157.311 123.71 156.94C124.081 156.552 124.382 156.163 124.611 155.775L125.088 156.093C124.752 156.64 124.329 157.161 123.816 157.656C123.322 158.132 122.748 158.371 122.095 158.371Z" fill="black"/>
<defs>
<filter id="filter0_d_12_36" x="57.2699" y="51.2095" width="28.5116" height="31.9013" filterUnits="userSpaceOnUse" color-interpolation-filters="sRGB">
<feFlood flood-opacity="0" result="BackgroundImageFix"/>
<feColorMatrix in="SourceAlpha" type="matrix" values="0 0 0 0 0 0 0 0 0 0 0 0 0 0 0 0 0 0 127 0" result="hardAlpha"/>
<feOffset dy="0.92"/>
<feGaussianBlur stdDeviation="0.46"/>
<feComposite in2="hardAlpha" operator="out"/>
<feColorMatrix type="matrix" values="0 0 0 0 0 0 0 0 0 0 0 0 0 0 0 0 0 0 0.25 0"/>
<feBlend mode="normal" in2="BackgroundImageFix" result="effect1_dropShadow_12_36"/>
<feBlend mode="normal" in="SourceGraphic" in2="effect1_dropShadow_12_36" result="shape"/>
</filter>
</defs>
</svg>
